<!DOCTYPE svg PUBLIC "-//W3C//DTD SVG 1.1//EN" "http://www.w3.org/Graphics/SVG/1.1/DTD/svg11.dtd">
<!-- Uploaded to: SVG Repo, www.svgrepo.com, Transformed by: SVG Repo Mixer Tools -->
<svg height="100px" width="100px" version="1.1" id="Layer_1" xmlns="http://www.w3.org/2000/svg" xmlns:xlink="http://www.w3.org/1999/xlink" viewBox="-60.91 -60.91 629.42 629.42" xml:space="preserve" fill="#000000" stroke="#000000" stroke-width="1.5228" transform="matrix(-1, 0, 0, 1, 0, 0)rotate(0)">
<g id="SVGRepo_bgCarrier" stroke-width="0">
<rect x="-60.91" y="-60.91" width="629.42" height="629.42" rx="314.71" fill="#25c4f8" strokewidth="0"/>
</g>
<g id="SVGRepo_tracerCarrier" stroke-linecap="round" stroke-linejoin="round"/>
<g id="SVGRepo_iconCarrier"> <path style="fill:#FFC52F;" d="M289.649,413.6c0-8,14.8-31.2,28-41.2c0.4-0.4,1.2-0.8,1.2-0.8c31.2-20.8,50.8-55.6,50.8-95.6 c0-64-52-116-116-116s-116,52-116,116c0,40,20.4,75.6,51.6,96.4c0,0,0.8,0,1.2,0.4c13.2,10,28,32.8,28,40.8L289.649,413.6 L289.649,413.6z"/> <path style="fill:#F4EFEF;" d="M217.649,413.6v44c0,15.6,11.6,28,26,32h20.4c14.4-4,25.6-16.8,25.6-32v-44H217.649z"/> <path d="M318.049,376.8c-1.2,0-2.4-0.8-3.2-1.6c-1.2-2-0.8-4.4,1.2-5.6c31.2-20.8,50-55.6,50-93.2c0-61.6-50.4-112-112-112 s-112,50.4-112,112c0,37.6,18.4,72.4,49.6,93.2c2,1.2,2.4,3.6,1.2,5.6s-3.6,2.4-5.6,1.2c-33.2-22.4-53.2-59.6-53.2-99.6 c0-66.4,54-120,120-120c66.4,0,120,54,120,120c0,40.4-20,77.6-53.6,100C319.249,376.4,318.449,376.8,318.049,376.8z"/> <path d="M260.049,495.6h-12.4c-18.4,0-36.4-18.8-36.4-38l-0.4-42c0-1.2,0.4-2,1.2-2.8s1.6-1.2,2.8-1.2h72c1.2,0,2,0.4,2.8,1.2 s1.2,1.6,1.2,2.8v42C290.849,476.4,279.249,495.6,260.049,495.6z M218.849,419.6l0.4,38c0,14.8,14.4,30,28.4,30h12.4 c14,0,22.8-15.6,22.8-30l0,0v-38H218.849z"/> <path d="M214.849,419.2c-2.4,0-4-1.6-4-4c0-10-10-28.8-22.8-38.8l-1.2-0.8c-1.6-1.2-2.4-3.6-0.8-5.6c1.2-1.6,3.6-2,5.6-0.8l0.8,0.8 l0.4,0.4c14,10.4,26,31.6,26,45.2C218.849,417.2,216.849,419.2,214.849,419.2z"/> <path d="M286.849,418.8c-2.4,0-4-1.6-4-4c0-14,19.2-35.2,32.4-45.2l1.2-0.8c1.6-1.2,4.4-0.8,5.6,0.8s0.8,4.4-0.8,5.6l-1.2,0.8 c-13.6,10.4-29.2,29.2-29.2,38.8C290.849,416.8,288.849,418.8,286.849,418.8z"/> <path d="M262.449,507.6h-16.8c-5.2,0-9.6-4-9.6-9.2v-4.8c0-2.4,1.6-4,4-4s4,1.6,4,4v4.8c0,0.4,0.8,1.2,1.6,1.2h16.8 c0.8,0,1.2-0.4,1.2-1.2v-4.8c0-2.4,1.6-4,4-4s4,1.6,4,4v4.8C271.649,503.6,267.649,507.6,262.449,507.6z"/> <path d="M239.649,415.6c-1.6,0-3.6-1.2-4-2.8l-33.2-128c-0.4-2,0.8-4.4,2.8-4.8s4.4,0.8,4.8,2.8l33.2,128c0.4,2-0.8,4.4-2.8,4.8 C240.049,415.6,240.049,415.6,239.649,415.6z"/> <path d="M268.049,415.6c-0.4,0-0.8,0-1.2,0c-2-0.4-3.6-2.8-2.8-4.8l33.2-128c0.4-2,2.8-3.6,4.8-2.8c2,0.4,3.6,2.8,2.8,4.8l-33.2,128 C271.249,414.4,269.649,415.6,268.049,415.6z"/> <path d="M282.449,306.4c-5.6,0-8.4-4-10.4-7.2c-2-2.8-2.8-3.6-4-3.6s-2,0.8-4,3.6c-2,2.8-4.8,7.2-10.4,7.2c-5.6,0-8.4-4-10.4-7.2 c-2-2.8-2.8-3.6-4-3.6s-2,0.8-4,3.6c-2,2.8-4.8,6.8-10.4,6.8c-5.6,0-8.4-4-10.4-7.2c-2-2.8-2.8-3.6-4-3.6c-2.4,0-4-1.6-4-4 s1.6-4,4-4c5.6,0,8.4,4,10.4,6.8s2.8,3.6,4,3.6s2-0.8,4-3.6c2-2.8,4.8-7.2,10.4-7.2c5.6,0,8.4,4,10.4,6.8s2.8,3.6,4,3.6s2-0.8,4-3.6 c2-2.8,4.8-7.2,10.4-7.2s8.4,4,10.4,6.8s2.8,3.6,4,3.6s2-0.8,4-3.6c2-2.8,4.8-6.8,10.4-6.8c2.4,0,4,1.6,4,4s-1.6,4-4,4 c-1.2,0-2,0.8-4,3.6C291.249,302.4,288.449,306.4,282.449,306.4z"/> <path d="M351.249,280c-2.4,0-4-1.6-4-4c0-31.2-15.6-60.4-41.2-78c-2-1.2-2.4-3.6-1.2-5.6s3.6-2.4,5.6-1.2 c28,18.8,44.8,50.4,44.8,84.4C355.249,278,353.649,280,351.249,280z"/> <path d="M290.049,189.2c-0.4,0-1.2,0-1.6-0.4c-11.2-4.4-23.2-6.8-35.2-6.8c-2.4,0-4-1.6-4-4s1.6-4,4-4c13.2,0,26,2.4,38,7.2 c2,0.8,3.2,3.2,2.4,5.2C293.249,188.4,291.649,189.2,290.049,189.2z"/> <path d="M265.649,443.6h-48c-2.4,0-4-1.6-4-4s1.6-4,4-4h48c2.4,0,4,1.6,4,4S268.049,443.6,265.649,443.6z"/> <path d="M265.649,463.6h-48c-2.4,0-4-1.6-4-4s1.6-4,4-4h48c2.4,0,4,1.6,4,4S268.049,463.6,265.649,463.6z"/> <path d="M285.649,443.6h-4c-2.4,0-4-1.6-4-4s1.6-4,4-4h4c2.4,0,4,1.6,4,4S288.049,443.6,285.649,443.6z"/> <path d="M285.649,463.6h-4c-2.4,0-4-1.6-4-4s1.6-4,4-4h4c2.4,0,4,1.6,4,4S288.049,463.6,285.649,463.6z"/> <path d="M281.649,479.6h-60c-2.4,0-4-1.6-4-4s1.6-4,4-4h60c2.4,0,4,1.6,4,4S284.049,479.6,281.649,479.6z"/> <path d="M16.449,143.2c-0.8,0-1.6,0-2-0.4c-2-1.2-2.4-3.6-1.2-5.6C63.649,52.8,156.049,0,254.049,0s190,52.4,240.4,136.4 c1.2,2,0.4,4.4-1.2,5.6c-2,1.2-4.4,0.4-5.6-1.2c-48.8-82-138.4-132.8-233.6-132.8c-95.6,0-185.2,51.2-234,133.2 C19.249,142.4,17.649,143.2,16.449,143.2z"/> <path d="M46.049,168.8c-0.8,0-1.2,0-2-0.4c-2-1.2-2.8-3.6-1.6-5.6c42-78,122.8-126.4,211.2-126.4c88,0,169.2,48.4,211.2,126 c1.2,2,0.4,4.4-1.6,5.6s-4.4,0.4-5.6-1.6c-40.4-75.2-118.8-121.6-204-121.6c-85.6,0-163.6,46.8-204.4,122.4 C48.849,168,47.249,168.8,46.049,168.8z"/> <path d="M75.649,198.4c-0.4,0-1.2,0-1.6-0.4c-2-0.8-2.8-3.2-2-5.2c32.4-70.8,104-116.8,182-116.8c77.6,0,148.8,45.6,181.6,116 c0.8,2,0,4.4-2,5.2c-2,0.8-4.4,0-5.2-2c-31.2-67.6-100-111.2-174.4-111.2c-74.8,0-143.2,44-174.4,112 C78.449,197.2,77.249,198,75.649,198.4z"/> <path d="M106.449,229.2c-0.4,0-0.8,0-1.2-0.4c-2-0.8-3.2-2.8-2.4-5.2c22.4-64.4,82.8-107.6,151.2-107.6c68,0,128.4,42.8,150.8,106.8 c0.8,2-0.4,4.4-2.4,5.2c-2,0.8-4.4-0.4-5.2-2.4c-21.2-60.8-78.8-101.6-143.2-101.6c-64.8,0-122.4,41.2-143.6,102.4 C109.649,228,108.049,229.2,106.449,229.2z"/> </g>
</svg>